<svg width="32" height="32" viewBox="0 0 32 32" fill="none" xmlns="http://www.w3.org/2000/svg">
<circle cx="16" cy="16" r="16" fill="#F4F0F0"/>
<g clip-path="url(#clip0)">
<path d="M22.4706 17.4809L22.3907 17.2568C22.0841 16.4104 21.7673 15.5334 21.7822 13.6171V9.60539C21.7822 9.40381 21.6508 9.23997 21.4898 9.23997C21.3288 9.23997 21.1976 9.40369 21.1976 9.60539V13.6136C21.1804 15.6875 21.5401 16.6816 21.8575 17.558L21.9369 17.7777C22.4593 19.25 22.5541 20.4239 22.2116 21.1761C21.8564 21.954 21.1239 22.076 21.1336 22.0774H9.37335C7.94745 22.0267 7.57813 20.9891 7.58497 20.3839C7.58844 20.0399 7.70199 19.8209 7.77793 19.8209C8.49697 19.8209 9.74989 19.6503 10.3479 19.5017C12.1848 19.0522 15.7727 16.68 16.7781 14.4524C17.0812 13.783 17.1995 12.2362 17.14 9.72377L17.1361 9.55781C17.1361 9.35623 17.0053 9.19238 16.8437 9.19238C16.6828 9.19238 16.5515 9.35611 16.5515 9.55781L16.5554 9.74474C16.6274 12.8163 16.4064 13.7865 16.2688 14.0923C15.3697 16.0862 11.9744 18.357 10.2351 18.7845C9.66278 18.9237 8.46472 19.0885 7.77784 19.0885C7.33595 19.0885 7.0091 19.6274 7.00029 20.3724C6.98744 21.5056 7.71877 22.7488 9.36444 22.8072L21.1655 22.8051C21.2078 22.7987 22.2029 22.6538 22.7139 21.5455C23.1644 20.5739 23.0828 19.2065 22.4706 17.4809Z" fill="#584957"/>
<path d="M17.7901 18.9499C18.0699 19.002 18.3285 19.0284 18.5672 19.0284C19.3328 19.0284 19.8877 18.7573 20.224 18.2192C20.936 17.0758 20.3233 15.2151 20.2971 15.1362C20.2354 14.9506 20.0624 14.8629 19.9151 14.9402C19.7656 15.0177 19.6959 15.2329 19.7581 15.4184C19.9008 15.8441 20.1812 17.0973 19.7627 17.7681C19.4612 18.2505 18.827 18.406 17.8775 18.2263C17.7189 18.1934 17.5692 18.3333 17.5452 18.5316C17.5207 18.7329 17.6309 18.9199 17.7901 18.9499Z" fill="#584957"/>
</g>
<defs>
<clipPath id="clip0">
<rect width="16" height="20" fill="white" transform="translate(7 6)"/>
</clipPath>
</defs>
</svg>
