<svg width="32" height="32" viewBox="0 0 32 32" fill="none" xmlns="http://www.w3.org/2000/svg">
<circle cx="16" cy="16" r="16" fill="#F4F0F0"/>
<g clip-path="url(#clip0)">
<path d="M23.9776 20.3442L23.3741 19.3377C23.2757 19.1736 23.0703 19.1249 22.915 19.2288C22.7598 19.3327 22.7138 19.55 22.812 19.714L23.4157 20.7206C23.523 20.8997 23.4973 21.1376 23.3545 21.2866C23.2644 21.3806 23.1406 21.4276 23.0144 21.4156C22.8883 21.4035 22.7744 21.334 22.7014 21.2246L20.0999 17.3147L19.0685 14.7145V14.4089C19.0685 14.2149 18.9195 14.0574 18.7358 14.0574C18.5522 14.0574 18.4031 14.2149 18.4031 14.4089V19.0939H14.6565V14.7896C14.6565 14.7885 14.6565 14.7873 14.6565 14.786V14.4089C14.6565 14.2149 14.5076 14.0574 14.3239 14.0574C14.1401 14.0574 13.9912 14.2149 13.9912 14.4089V14.718L12.9613 17.3147L10.3596 21.2246C10.2869 21.3339 10.1728 21.4035 10.0467 21.4155C9.92078 21.4274 9.79668 21.3806 9.70662 21.2865C9.5638 21.1376 9.53807 20.8997 9.64541 20.7204L11.9574 16.8648C11.9718 16.8409 11.9833 16.8155 11.9919 16.7887L12.9805 13.6816C13.3288 12.587 14.2972 11.8516 15.39 11.8516H17.6711C18.764 11.8516 19.7323 12.587 20.0805 13.6816L21.0694 16.7887C21.0778 16.8155 21.0894 16.8409 21.1037 16.8648L21.5554 17.6183C21.6188 17.7239 21.7265 17.7817 21.8367 17.7817C21.8977 17.7817 21.9593 17.764 22.0145 17.7271C22.1697 17.6231 22.2158 17.4059 22.1174 17.2419L21.6872 16.5243L20.7112 13.4575C20.3113 12.2007 19.2637 11.3194 18.0392 11.1708C18.4013 10.7729 18.6247 10.2329 18.6247 9.63851V9.17777C18.6247 7.9576 17.6852 6.96484 16.5305 6.96484C15.3758 6.96484 14.4364 7.9576 14.4364 9.17777V9.63851C14.4364 10.2329 14.6597 10.7729 15.0218 11.1708C13.7974 11.3194 12.7497 12.2007 12.3497 13.4575L11.3739 16.5243L9.08336 20.3442C8.80955 20.8006 8.87518 21.4075 9.23931 21.7871C9.40461 21.9594 9.61474 22.0697 9.8393 22.1065C9.83917 22.1069 9.83904 22.1072 9.83904 22.1075C9.66321 22.6045 9.66997 23.1491 9.85801 23.641C10.1696 24.4563 10.9166 24.9649 11.7157 24.9649C11.8878 24.9649 12.0624 24.9413 12.2355 24.892L16.5305 23.6703L20.8254 24.892C20.9985 24.9413 21.1731 24.9649 21.3453 24.9649C22.1441 24.9647 22.8912 24.4562 23.2028 23.641C23.3909 23.1491 23.3976 22.6045 23.2219 22.1075C23.2218 22.1072 23.2217 22.1069 23.2215 22.1065C23.4461 22.0697 23.6562 21.9594 23.8216 21.7871C24.1858 21.4076 24.2514 20.8008 23.9776 20.3442ZM15.1018 9.17777C15.1018 8.34528 15.7427 7.66797 16.5306 7.66797C17.3184 7.66797 17.9593 8.34528 17.9593 9.17777V9.63851C17.9593 10.4711 17.3184 11.1484 16.5306 11.1484C15.7427 11.1484 15.1018 10.471 15.1018 9.63851V9.17777ZM19.5 17.6216C19.5093 17.6449 19.521 17.6673 19.5347 17.6879L21.4111 20.5079L19.0685 19.2455V16.5334L19.5 17.6216ZM13.5263 17.6879C13.5401 17.6673 13.5517 17.6449 13.5609 17.6216L13.9912 16.537V19.2463L11.6498 20.5079L13.5263 17.6879ZM22.5861 23.3778C22.333 24.0394 21.6505 24.3985 20.9984 24.2131L17.6327 23.2557C17.9024 23.031 18.0704 22.6836 18.0704 22.3043C18.0704 22.2911 18.0698 22.278 18.0694 22.265L20.1492 22.7841C20.1749 22.7905 20.2006 22.7936 20.226 22.7936C20.3767 22.7936 20.5133 22.6845 20.5494 22.5228C20.5917 22.3338 20.4809 22.1444 20.3021 22.0998L17.8142 21.4788C17.7944 21.4738 17.7745 21.4712 17.7548 21.4701C17.7179 21.4293 17.6784 21.3905 17.6356 21.3548C17.3593 21.1238 17.0042 21.0404 16.6612 21.1258L12.759 22.0998C12.5802 22.1444 12.4694 22.3338 12.5117 22.5228C12.5539 22.7117 12.733 22.8287 12.9119 22.7841L16.814 21.8101C16.958 21.7742 17.107 21.8092 17.2227 21.9061C17.3387 22.0031 17.4051 22.1483 17.4051 22.3043C17.4051 22.5335 17.2587 22.7351 17.0494 22.7947L16.4571 22.9632C16.45 22.9648 16.4433 22.9669 16.4365 22.9689L12.0627 24.213C11.4106 24.3985 10.7281 24.0394 10.475 23.3778C10.2136 22.6935 10.4854 21.9245 11.1075 21.5893L14.4339 19.797H18.6271L21.9536 21.5893C22.5757 21.9247 22.8476 22.6935 22.5861 23.3778Z" fill="#584957"/>
<path d="M22.1929 18.6993C22.2578 18.7681 22.3431 18.8026 22.4285 18.8026C22.5135 18.8026 22.5984 18.7684 22.6634 18.6999L22.6758 18.687C22.8058 18.5498 22.8061 18.3272 22.6763 18.1897C22.5466 18.0522 22.3359 18.052 22.2059 18.189L22.1935 18.2021C22.0634 18.3393 22.0632 18.5619 22.1929 18.6993Z" fill="#584957"/>
</g>
<defs>
<clipPath id="clip0">
<rect width="17" height="18" fill="white" transform="translate(8 7)"/>
</clipPath>
</defs>
</svg>
