<?xml version="1.0" encoding="utf-8"?>
<!-- Generator: Adobe Illustrator 22.0.1, SVG Export Plug-In . SVG Version: 6.00 Build 0)  -->
<svg version="1.1" id="Layer_1" xmlns="http://www.w3.org/2000/svg" xmlns:xlink="http://www.w3.org/1999/xlink" x="0px" y="0px"
	 viewBox="0 0 352.7 284.3" style="enable-background:new 0 0 352.7 284.3;" xml:space="preserve">
<style type="text/css">
	.st0{fill:#FFFFFF;}
</style>
<g>
	<path class="st0" d="M178.2,162.7c3.3,3.5,10.8,11,21.5,18.7c13.2,9.5,33.6,20.7,56.5,20.7s43.3-11.3,56.5-20.7
		c14.2-10.2,22.9-20.2,23.2-20.6c0.8-0.9,0.7-2.3-0.1-3.2c-0.3-0.3-7.4-7.2-19.2-14.9c-10.5-6.8-26.6-15.5-45.2-18.7
		c6.5-9.3,14.1-24.5,17.4-47.6c2.2-15.2,1.4-26.7,1.4-26.8c0-0.6-0.5-1-1.1-1c0,0-2.2,0-5.9,0.3c-3.7,0.3-8.9,0.9-15,2
		c-10.6,2-26,6-40.5,14.3c-2.8-10.7-9.9-26.7-27.2-45C189.6,8.6,179.9,1.7,179.6,1.4c-1.3-1.1-1.3-1.1-2.7,0
		c-0.4,0.3-10.1,7.2-20.9,18.7c-17.3,18.3-24.3,34.3-27.2,45c-14.5-8.3-29.9-12.3-40.5-14.3c-12.1-2.2-20.8-2.3-20.9-2.3h0
		c-0.6,0-1.1,0.4-1.1,1c0,0.1-0.8,11.7,1.4,26.8C70.9,99.4,78.6,114.7,85,124c-18.6,3.3-34.8,11.9-45.2,18.7
		c-11.8,7.7-18.9,14.6-19.2,14.9c-0.9,0.9-0.9,2.3-0.1,3.2c0.4,0.4,9.1,10.5,23.2,20.6c13.2,9.5,33.6,20.7,56.5,20.7
		c22.9,0,43.3-11.3,56.5-20.7C167.4,173.8,175,166.2,178.2,162.7z M313.9,146.5c8.2,5.4,14.7,12.9,14.7,12.9s-5.9,8.3-14.9,15.4
		c-1.3,1-2.5,2-3.8,2.9c-12.6,9-32.1,19.8-53.8,19.8c-21.6,0-41.1-10.7-53.7-19.8c-9.4-6.7-16.4-13.5-19.9-17.2c0.8,0,1.6,0,2.5,0
		c7.7,0,21.1-0.6,35.6-4.3c14.5-3.6,30.1-10.3,42.2-22.3c1.8-1.8,3.6-3.8,5.3-5.8c0,0,0.1,0,0.1,0C287,131,303.4,139.7,313.9,146.5z
		 M183.2,158.4c2.1-1.7,5-4.1,8.3-7.1c8.8-6.5,18-11.8,27.2-15.7c12.8-5.5,25.4-8.3,37.4-8.3c3.1,0,6.3,0.2,9.4,0.6
		c-1.4,1.6-2.8,3.2-4.2,4.6c-23.6,23.4-61.2,25.9-76.2,25.9C184.5,158.4,183.8,158.4,183.2,158.4z M228.2,67.3
		c13.6-7.9,28.3-12,39.8-14.2c9.8-1.8,19-1.4,19-1.4s1.3,12-0.4,24.4c-1.9,13.3-6.5,32.1-17.6,47.5c0,0,0,0,0,0
		c-4.3-0.6-8.6-1-12.8-1c-12.7,0-25.9,2.9-39.3,8.6c-3.8,1.6-7.5,3.5-11.3,5.5c3.6-4.2,7.3-9,10.6-14.1c9-14.1,13.6-28,13.6-41.4
		C229.8,76.7,229.3,72,228.2,67.3z M225.1,81.3c0,28.6-22.9,53.8-36.6,66.4c-3.9,2.9-7,5.4-9,7.2c1-12.6,5.9-49.6,30.7-74.1
		c4-4,8.6-7.7,13.7-11C224.7,73.7,225.1,77.5,225.1,81.3z M159.3,23.4c8.2-8.7,18.9-15,18.9-15s10.3,5.9,18.3,14.4
		c10.7,11.2,22.6,27,26.9,44.8c-5.4,3.5-10.4,7.4-14.7,11.7c-21.3,21.1-28.3,51.1-30.5,67.7c-2.3-16.6-9.2-46.6-30.5-67.7
		c-4.3-4.3-9.3-8.2-14.7-11.7C135.4,57.5,142,41.7,159.3,23.4z M132.5,69.9c5,3.3,9.6,7,13.7,11c24.8,24.5,29.7,61.5,30.7,74.1
		c-2-1.8-5.1-4.3-9-7.2c-13.7-12.5-36.6-37.7-36.6-66.4C131.3,77.5,131.7,73.7,132.5,69.9z M173.2,158.4c-0.6,0-1.2,0-1.9,0
		c-7.5,0-20.7-0.6-34.9-4.2c-14.2-3.6-29.5-10-41.3-21.7c-1.5-1.4-2.9-3-4.2-4.6c3.2-0.4,6.3-0.6,9.4-0.6c12.1,0,24.7,2.8,37.4,8.3
		c9.3,4,18.4,9.3,27.2,15.7C168.2,154.3,171.1,156.7,173.2,158.4z M69.8,76.1c-1.8-12.3-0.4-24.4-0.4-24.4s9.2-0.5,19,1.4
		c11.5,2.2,26.2,6.3,39.8,14.2c-1.1,4.7-1.6,9.4-1.6,14c0,13.4,4.6,27.3,13.6,41.4c3.3,5.1,6.9,9.9,10.6,14.1
		c-3.7-2-7.5-3.9-11.3-5.5c-13.4-5.7-26.6-8.6-39.3-8.6c-4.2,0-8.5,0.3-12.8,1c0,0,0,0,0,0C76.3,108.1,71.7,89.3,69.8,76.1z
		 M154,177.6c-12.6,9-32.1,19.8-53.8,19.8c-21.6,0-41.1-10.7-53.7-19.8c-1.4-1-2.7-2-4-2.9c-8.4-6.4-14.9-15.4-14.9-15.4
		s6.3-7.3,14.3-12.5c11.6-7.6,27.8-16,46.1-18.7c0,0,0.1,0,0.1,0c1.7,2.1,3.4,4,5.3,5.8c24.2,24,62.5,26.5,77.8,26.5
		c0.9,0,1.8,0,2.6,0C170.3,164.2,163.3,170.9,154,177.6z"/>
	<path class="st0" d="M178.2,96.6c8.4,0,15.3-6.9,15.3-15.3c0-8.4-6.9-15.3-15.3-15.3c-8.4,0-15.3,6.9-15.3,15.3
		C162.9,89.7,169.8,96.6,178.2,96.6z M178.2,70.4c6,0,10.9,4.9,10.9,10.9c0,6-4.9,10.9-10.9,10.9c-6,0-10.9-4.9-10.9-10.9
		C167.3,75.3,172.2,70.4,178.2,70.4z"/>
	<path class="st0" d="M344.4,245.5c-3.6-3.8-9.6-5.9-17.5-5.9c-4.1,0-7.8,0.4-11.1,1v19.7h-5.7v2.5h5.7v20.7
		c3.1,0.3,6.3,0.4,9.6,0.4c8.3,0,14.9-2.4,18.7-6.6c3.9-4.3,5.7-10.1,5.7-16.4C349.8,253.9,347.9,249.1,344.4,245.5z M325.9,281.2
		c-2.8,0-5.3-0.1-7-0.3v-18.2h13.4v-2.5h-13.4v-17.3c1.9-0.4,4.5-0.7,7.8-0.7c13.9,0,20,7.5,19.9,18.5
		C346.6,273.4,339.8,281.2,325.9,281.2z"/>
	<rect x="299.5" y="240.1" class="st0" width="3.1" height="43.3"/>
	<path class="st0" d="M280.1,262.5v-0.1c5-1.7,8.5-5.5,8.5-11.3c0-3-1.2-5.9-3-7.7c-2.4-2.4-6-3.6-11.7-3.6c-3,0-6.7,0.3-9.4,0.9
		v42.7h3.1v-19.8h6.7c5.7,0.3,8.4,3.1,9.8,9.3c1.2,5.5,2.1,9.2,2.8,10.5h3.1c-0.9-1.7-1.7-4.9-3.2-11.7
		C285.8,266.8,283.6,263.6,280.1,262.5z M267.6,261v-18.2c1.1-0.3,3.3-0.6,6.2-0.6c6.8,0,11.7,2.7,11.7,9.3c0,5.7-4.4,9.4-11,9.4
		H267.6z"/>
	<polygon class="st0" points="226.2,242.6 240.3,242.6 240.3,283.3 243.4,283.3 243.4,242.6 257.5,242.6 257.5,240.1 226.2,240.1 	
		"/>
	<polygon class="st0" points="201.3,261.8 218.6,261.8 218.6,259.3 201.3,259.3 201.3,242.6 219.6,242.6 219.6,240.1 198.2,240.1 
		198.2,283.3 220.6,283.3 220.6,280.8 201.3,280.8 	"/>
	<path class="st0" d="M176.5,259.5c-6.2-2.4-9-4.9-9-9.6c0-3.4,2.4-7.9,9.4-7.9c3.7,0,6.5,1.2,7.6,2.1l1.2-2.6c-1.5-1-4.6-2-8.6-2
		c-7.4,0-12.6,4.6-12.6,11c0,5.8,4.2,9.4,11.1,11.9c6.3,2.4,8.8,5.3,8.8,10.1c0,5.3-4,9-10.5,9c-3.6,0-7-1.2-9.4-2.8l-1.2,2.5
		c2.3,1.7,6.6,2.9,10.3,2.9c9.2,0,13.7-5.6,13.7-11.9C187.4,265.7,183.6,262.4,176.5,259.5z"/>
	<path class="st0" d="M135.1,240.1l-14.7,43.3h5.8l4.5-13.6H146l4.6,13.6h6l-14.8-43.3H135.1z M131.8,265.4l4.2-12.5
		c0.8-2.6,1.5-5.3,2.1-7.8h0.2c0.6,2.5,1.3,5.1,2.2,7.9l4.3,12.5H131.8z"/>
	<path class="st0" d="M98.4,265.1h8.7V278c-1.3,0.6-3.8,1.2-7.5,1.2c-10.1,0-16.7-6.5-16.7-17.5c0-10.8,6.9-17.4,17.4-17.4
		c4.4,0,7.3,0.8,9.6,1.9l1.4-4.6c-1.9-0.9-5.8-2-10.9-2c-14.5,0-23.4,9.4-23.4,22.3c0,6.7,2.3,12.5,6,16.1c4.2,4,9.6,5.7,16.2,5.7
		c5.8,0,10.9-1.4,13.4-2.4v-20.8H98.4V265.1z"/>
	<path class="st0" d="M50.3,239.4c-11.6,0-20,9-20,22.7c0,13.1,8,22,19.5,22h0.1c11,0,20-8,20-22.8
		C69.8,248.4,62.2,239.4,50.3,239.4z M50,279.5L50,279.5c-8.9,0-13.9-8.4-13.9-17.5c0-9.4,4.6-18,13.9-18c9.3,0,13.8,9,13.8,17.6
		C63.9,271.3,58.9,279.5,50,279.5z"/>
	<polygon class="st0" points="59.5,230 52.7,230 46.7,237.6 51.3,237.6 	"/>
	<path class="st0" d="M15.3,268.6c0,8.5-2.9,10.7-7.9,10.7c-1.9,0-3.6-0.4-4.8-0.8L1.9,283c1.3,0.6,3.9,1,6,1
		c7.4,0,13.1-3.5,13.1-15v-29h-5.7V268.6z"/>
</g>
</svg>
