<svg width="32" height="39" viewBox="0 0 32 39" fill="none" xmlns="http://www.w3.org/2000/svg">
<circle cx="16" cy="16" r="16" fill="#F4F0F0"/>
<path d="M27.9432 15.4844C27.8836 15.3836 27.7856 15.3235 27.6811 15.3235H23.6938C23.6362 14.4722 23.4102 13.6434 23.02 12.9374C22.5002 11.9968 21.6413 11.4134 20.7225 11.3767C20.6686 11.3745 20.5541 11.3751 20.5512 11.3751H7.77929C5.69535 11.3751 4 13.7581 4 16.6873C4 19.6164 5.69535 21.9994 7.77929 21.9994L15.4194 22C15.4194 22 15.4195 22 15.4195 22L20.396 21.9984H20.3961C22.0777 21.9983 23.6902 21.3989 25.0592 20.2648C26.3979 19.156 27.4078 17.6221 27.9798 15.8288C28.0164 15.7139 28.0027 15.5852 27.9432 15.4844ZM22.4849 13.3446C23.1699 14.5837 23.2577 16.3431 22.7034 17.7227C22.4129 18.4466 21.9257 18.9622 21.3666 19.1374C20.8852 19.2881 20.3825 19.1766 19.9507 18.8233C19.5698 18.5117 19.2975 17.989 19.1891 17.3805H21.5796C21.7031 17.3805 21.8155 17.2969 21.8681 17.1658C22.2699 16.1653 22.0266 14.9253 21.3144 14.343C21.0338 14.1133 20.7189 13.9935 20.399 13.9895C20.3921 13.989 18.0864 13.9882 18.0864 13.9882C18.6497 12.8806 19.5479 12.1491 20.558 12.1239C20.5593 12.1238 20.6678 12.1232 20.7007 12.1245C21.4115 12.153 22.0784 12.609 22.4849 13.3446ZM17.4719 16.6873C17.4719 15.9916 17.5813 15.3297 17.7766 14.7365H19.0815C18.9643 14.8995 18.8624 15.0848 18.7803 15.2893C18.5664 15.8224 18.4716 16.4247 18.5063 17.0313C18.5063 17.0315 18.5063 17.0315 18.5063 17.0317C18.5551 17.8905 18.8604 18.6743 19.3378 19.1994H17.9927C17.6636 18.4766 17.4719 17.6123 17.4719 16.6873ZM19.3573 15.6082C19.5289 15.1808 19.8138 14.8773 20.139 14.7754C20.4138 14.6894 20.7017 14.7537 20.9497 14.9568C21.3514 15.2852 21.5189 16.0121 21.3611 16.6323H19.1405C19.1569 16.2733 19.2303 15.9246 19.3573 15.6082ZM15.4194 21.2517L7.77929 21.2511C6.04706 21.2511 4.63773 19.2038 4.63773 16.6873C4.63773 14.1707 6.04706 12.1234 7.77929 12.1234H18.6739C18.3929 12.3599 18.1321 12.65 17.8982 12.9894C17.212 13.985 16.8341 15.2983 16.8341 16.6873C16.8341 18.6143 17.5719 20.3192 18.6796 21.2506L15.4194 21.2517ZM24.6915 19.6535C23.4635 20.6707 22.0227 21.2198 20.5174 21.2479C20.4963 21.2483 20.4306 21.2432 20.4185 21.2422C19.6389 21.1728 18.9393 20.6947 18.4174 19.9521C18.4174 19.9521 20.9005 19.9521 20.9407 19.9521C21.1375 19.9521 21.3354 19.9217 21.5311 19.8604C22.2721 19.6283 22.9097 18.9654 23.2804 18.0417C23.5292 17.4224 23.6684 16.7492 23.7012 16.0718H27.206C26.6597 17.5069 25.7973 18.7375 24.6915 19.6535Z" fill="#584957"/>
</svg>
