<svg width="32" height="32" viewBox="0 0 32 32" fill="none" xmlns="http://www.w3.org/2000/svg">
<circle cx="16" cy="16" r="16" fill="#F4F0F0"/>
<path d="M13.0667 16.2667H14.9712C15.0904 16.7253 15.5045 17.0667 16 17.0667C16.5883 17.0667 17.0667 16.5883 17.0667 16C17.0667 15.5043 16.7253 15.0904 16.2667 14.9712V12.2667C16.2667 12.1192 16.1472 12 16 12C15.8528 12 15.7333 12.1192 15.7333 12.2667V14.9712C15.3603 15.0683 15.0683 15.3603 14.9712 15.7333H13.0667C12.9195 15.7333 12.8 15.8525 12.8 16C12.8 16.1475 12.9195 16.2667 13.0667 16.2667ZM16 15.4667C16.2941 15.4667 16.5333 15.7059 16.5333 16C16.5333 16.2941 16.2941 16.5333 16 16.5333C15.7059 16.5333 15.4667 16.2941 15.4667 16C15.4667 15.7059 15.7059 15.4667 16 15.4667Z" fill="#584957"/>
<path d="M16 10.6667C16.1472 10.6667 16.2667 10.5475 16.2667 10.4V10.1334C16.2667 9.9859 16.1472 9.8667 16 9.8667C15.8528 9.8667 15.7333 9.9859 15.7333 10.1334V10.4C15.7333 10.5475 15.8528 10.6667 16 10.6667Z" fill="#584957"/>
<path d="M16 21.3335C15.8528 21.3335 15.7333 21.4527 15.7333 21.6002V21.8668C15.7333 22.0143 15.8528 22.1335 16 22.1335C16.1472 22.1335 16.2667 22.0143 16.2667 21.8668V21.6002C16.2667 21.4527 16.1472 21.3335 16 21.3335Z" fill="#584957"/>
<path d="M21.6 15.7334C21.4528 15.7334 21.3333 15.8526 21.3333 16.0001C21.3333 16.1475 21.4528 16.2667 21.6 16.2667H21.8666C22.0138 16.2667 22.1333 16.1475 22.1333 16.0001C22.1333 15.8526 22.0138 15.7334 21.8666 15.7334H21.6Z" fill="#584957"/>
<path d="M10.1333 16.2667H10.4C10.5472 16.2667 10.6666 16.1475 10.6666 16.0001C10.6666 15.8526 10.5472 15.7334 10.4 15.7334H10.1333C9.9861 15.7334 9.86664 15.8526 9.86664 16.0001C9.86664 16.1475 9.9861 16.2667 10.1333 16.2667Z" fill="#584957"/>
<path d="M21.4115 10.8552C21.4798 10.8552 21.548 10.8291 21.6 10.7771L21.7886 10.5886C21.8928 10.4843 21.8928 10.3158 21.7886 10.2115C21.6843 10.1072 21.5158 10.1072 21.4115 10.2115L21.223 10.4C21.1187 10.5043 21.1187 10.6728 21.223 10.7771C21.275 10.8291 21.3432 10.8552 21.4115 10.8552Z" fill="#584957"/>
<path d="M10.4389 21.1836L10.2504 21.3721C10.1461 21.4764 10.1461 21.6449 10.2504 21.7492C10.3024 21.8012 10.3706 21.8273 10.4389 21.8273C10.5072 21.8273 10.5754 21.8012 10.6274 21.7492L10.816 21.5606C10.9202 21.4564 10.9202 21.2878 10.816 21.1836C10.7117 21.0793 10.5432 21.0796 10.4389 21.1836Z" fill="#584957"/>
<path d="M21.3723 21.7498C21.4243 21.8018 21.4925 21.8279 21.5608 21.8279C21.6291 21.8279 21.6973 21.8018 21.7493 21.7498C21.8536 21.6455 21.8536 21.477 21.7493 21.3727L21.5608 21.1842C21.4565 21.0799 21.288 21.0799 21.1837 21.1842C21.0795 21.2884 21.0795 21.457 21.1837 21.5612L21.3723 21.7498Z" fill="#584957"/>
<path d="M10.3448 10.7219C10.3968 10.7739 10.4651 10.8001 10.5333 10.8001C10.6016 10.8001 10.6699 10.7739 10.7219 10.7219C10.8261 10.6177 10.8261 10.4491 10.7219 10.3449L10.5333 10.1563C10.4291 10.0521 10.2605 10.0521 10.1563 10.1563C10.052 10.2606 10.052 10.4291 10.1563 10.5334L10.3448 10.7219Z" fill="#584957"/>
<path d="M8 8V24H24V8H8ZM23.4667 23.4667H8.53333V8.53333H23.4667V23.4667Z" fill="#584957"/>
</svg>
